<svg xmlns="http://www.w3.org/2000/svg" width="214" height="78" viewBox="0 0 214 78">
  <g id="Group_43" data-name="Group 43" transform="translate(-2360 -4395)">
    <path id="Path_12" data-name="Path 12" d="M22.644,18V6.264h2.772l1.152,4.158.4,1.62h.072l.4-1.62,1.152-4.158h2.772V18H29.124V14.364q0-.486.036-1.224t.09-1.512q.054-.774.117-1.5t.1-1.2h-.054l-.9,3.132-.9,2.826h-1.3L25.4,12.06l-.846-3.132H24.5q.054.468.108,1.2t.108,1.5q.054.774.09,1.512t.036,1.224V18Zm11.412,0V6.264h7.776V8.5H36.72v2.358h4.338v2.214H36.72v2.7h5.292V18Zm47.952.216a5.614,5.614,0,0,1-2.079-.387A4.967,4.967,0,0,1,78.2,16.686a5.481,5.481,0,0,1-1.188-1.881,7.1,7.1,0,0,1-.441-2.6A7.32,7.32,0,0,1,77,9.6a5.66,5.66,0,0,1,1.188-1.935,5.043,5.043,0,0,1,1.782-1.206,5.813,5.813,0,0,1,2.2-.414,4.373,4.373,0,0,1,2.016.459A6.126,6.126,0,0,1,85.68,7.542L84.222,9.18a3.666,3.666,0,0,0-.909-.612,2.646,2.646,0,0,0-1.143-.234,2.539,2.539,0,0,0-1.152.261,2.7,2.7,0,0,0-.909.747,3.571,3.571,0,0,0-.6,1.188,5.38,5.38,0,0,0-.216,1.584,4.3,4.3,0,0,0,.828,2.817,2.672,2.672,0,0,0,2.16,1,2.4,2.4,0,0,0,1.161-.288,3.722,3.722,0,0,0,.963-.756l1.458,1.6A4.791,4.791,0,0,1,82.008,18.216ZM87.552,18V6.264H90.2v4.518h3.2V6.264h2.646V18H93.4V13.1H90.2V18Zm14.04-5.94-.27,1.08h2.466l-.27-1.08q-.234-.882-.486-1.863t-.45-1.917h-.072q-.216.936-.45,1.917T101.592,12.06ZM97.362,18l3.654-11.736h3.168L107.838,18H105.03l-.7-2.79h-3.546l-.72,2.79ZM154.6,7.722a1.385,1.385,0,0,1-1.035-.414,1.409,1.409,0,0,1-.4-1.026,1.432,1.432,0,0,1,.4-1.044,1.5,1.5,0,0,1,2.07,0,1.432,1.432,0,0,1,.4,1.044,1.409,1.409,0,0,1-.4,1.026A1.385,1.385,0,0,1,154.6,7.722Zm4,0a1.385,1.385,0,0,1-1.035-.414,1.41,1.41,0,0,1-.405-1.026,1.432,1.432,0,0,1,.405-1.044,1.5,1.5,0,0,1,2.07,0,1.432,1.432,0,0,1,.4,1.044,1.409,1.409,0,0,1-.4,1.026A1.385,1.385,0,0,1,158.6,7.722ZM1.188,33V21.264H3.906L6.372,27.1,7.38,29.688h.072q-.09-.936-.234-2.079a17.515,17.515,0,0,1-.144-2.187V21.264H9.612V33H6.894L4.428,27.15,3.42,24.594H3.348q.09.972.234,2.088a16.882,16.882,0,0,1,.144,2.16V33Zm10.944,0V30.768h2.736V23.5H12.132V21.264h8.136V23.5H17.532v7.272h2.736V33Zm48.276.216a5.614,5.614,0,0,1-2.079-.387A4.967,4.967,0,0,1,56.6,31.686a5.481,5.481,0,0,1-1.188-1.881,7.1,7.1,0,0,1-.441-2.6,7.32,7.32,0,0,1,.432-2.6,5.66,5.66,0,0,1,1.188-1.935,5.043,5.043,0,0,1,1.782-1.206,5.813,5.813,0,0,1,2.2-.414,4.373,4.373,0,0,1,2.016.459,6.125,6.125,0,0,1,1.494,1.035L62.622,24.18a3.666,3.666,0,0,0-.909-.612,2.646,2.646,0,0,0-1.143-.234,2.539,2.539,0,0,0-1.152.261,2.7,2.7,0,0,0-.909.747,3.571,3.571,0,0,0-.6,1.188,5.38,5.38,0,0,0-.216,1.584,4.3,4.3,0,0,0,.828,2.817,2.672,2.672,0,0,0,2.16,1,2.4,2.4,0,0,0,1.161-.288,3.722,3.722,0,0,0,.963-.756l1.458,1.6A4.791,4.791,0,0,1,60.408,33.216Zm8.784-6.156-.27,1.08h2.466l-.27-1.08q-.234-.882-.486-1.863t-.45-1.917H70.11q-.216.936-.45,1.917T69.192,27.06ZM64.962,33l3.654-11.736h3.168L75.438,33H72.63l-.7-2.79H68.382L67.662,33Zm12.564,0V21.264h2.646v9.5h5.22V33Zm31.7,0V21.264h2.682V26.07h.054l3.474-4.806h2.934l-3.528,4.662L118.692,33h-2.934l-2.5-4.986-1.35,1.782V33Zm11.232,0V21.264h7.776V23.5H123.12v2.358h4.338v2.214H123.12v2.7h5.292V33Zm13.212,0V29.04l-3.78-7.776h2.844l1.188,2.826q.252.684.522,1.332t.54,1.35h.072q.288-.7.558-1.35t.54-1.332l1.188-2.826h2.772l-3.78,7.776V33ZM44.532,48V36.264h3.942a10.027,10.027,0,0,1,1.7.135,3.956,3.956,0,0,1,1.359.477,2.562,2.562,0,0,1,.909.9,2.7,2.7,0,0,1,.333,1.4,2.783,2.783,0,0,1-.117.792,2.367,2.367,0,0,1-.369.738,2.782,2.782,0,0,1-.63.612,2.567,2.567,0,0,1-.9.4v.072a3.471,3.471,0,0,1,1.908.9,2.547,2.547,0,0,1,.648,1.854,3.275,3.275,0,0,1-.342,1.548,2.972,2.972,0,0,1-.954,1.071,4.379,4.379,0,0,1-1.431.63A7.221,7.221,0,0,1,48.816,48Zm2.646-7.02h1.17a2.113,2.113,0,0,0,1.4-.378,1.336,1.336,0,0,0,.432-1.062,1.012,1.012,0,0,0-.441-.927,2.642,2.642,0,0,0-1.377-.279H47.178Zm0,4.95H48.6q2.124,0,2.124-1.584a1.242,1.242,0,0,0-.513-1.116,2.965,2.965,0,0,0-1.611-.342H47.178ZM59.4,48.216a4.586,4.586,0,0,1-1.917-.4,4.031,4.031,0,0,1-1.494-1.17,5.585,5.585,0,0,1-.963-1.917,9.289,9.289,0,0,1-.342-2.655,8.96,8.96,0,0,1,.342-2.6,5.5,5.5,0,0,1,.963-1.89,3.983,3.983,0,0,1,1.494-1.152,4.941,4.941,0,0,1,3.834,0,3.983,3.983,0,0,1,1.494,1.152,5.5,5.5,0,0,1,.963,1.89,8.96,8.96,0,0,1,.342,2.6,9.289,9.289,0,0,1-.342,2.655,5.585,5.585,0,0,1-.963,1.917,4.031,4.031,0,0,1-1.494,1.17A4.586,4.586,0,0,1,59.4,48.216Zm0-2.286a1.63,1.63,0,0,0,1.458-.972,6.076,6.076,0,0,0,.54-2.88,5.773,5.773,0,0,0-.54-2.79,1.591,1.591,0,0,0-2.916,0,5.773,5.773,0,0,0-.54,2.79,6.076,6.076,0,0,0,.54,2.88A1.63,1.63,0,0,0,59.4,45.93Zm31.392-3.87-.27,1.08h2.466l-.27-1.08q-.234-.882-.486-1.863t-.45-1.917H91.71q-.216.936-.45,1.917T90.792,42.06ZM86.562,48l3.654-11.736h3.168L97.038,48H94.23l-.7-2.79H89.982L89.262,48Zm11.9,0V36.264h4.158a8.165,8.165,0,0,1,1.755.18,4.088,4.088,0,0,1,1.44.6,2.978,2.978,0,0,1,.981,1.125,3.8,3.8,0,0,1,.36,1.746,3.681,3.681,0,0,1-.576,2.133,3.536,3.536,0,0,1-1.512,1.251l2.646,4.7h-2.97l-2.25-4.23h-1.386V48Zm2.646-6.336h1.3q2.142,0,2.142-1.746a1.315,1.315,0,0,0-.54-1.206,3.029,3.029,0,0,0-1.6-.342h-1.3ZM109.26,48V36.264h3.24a7.431,7.431,0,0,1,2.322.342,4.583,4.583,0,0,1,1.782,1.053,4.745,4.745,0,0,1,1.143,1.809,7.548,7.548,0,0,1,.4,2.61,7.864,7.864,0,0,1-.4,2.628,4.861,4.861,0,0,1-1.125,1.845,4.617,4.617,0,0,1-1.737,1.089,6.6,6.6,0,0,1-2.232.36Zm2.664-2.142h.432a3.773,3.773,0,0,0,1.251-.2,2.353,2.353,0,0,0,.972-.639,3.021,3.021,0,0,0,.63-1.161,6.051,6.051,0,0,0,.225-1.782,5.886,5.886,0,0,0-.225-1.755,2.857,2.857,0,0,0-.63-1.134,2.278,2.278,0,0,0-.972-.6,4.119,4.119,0,0,0-1.251-.18h-.432Z" transform="translate(2386 4407)"/>
    <g id="Rectangle_2" data-name="Rectangle 2" transform="translate(2360 4395)" fill="none" stroke="#000" stroke-width="3">
      <rect width="214" height="78" stroke="none"/>
      <rect x="1.5" y="1.5" width="211" height="75" fill="none"/>
    </g>
    <rect id="Rectangle_29" data-name="Rectangle 29" width="17" height="3" transform="translate(2529 4451)"/>
  </g>
</svg>
