<?xml version="1.0" encoding="utf-8"?>
<!-- Generator: Adobe Illustrator 19.0.0, SVG Export Plug-In . SVG Version: 6.00 Build 0)  -->
<svg xmlns="http://www.w3.org/2000/svg" xmlns:xlink="http://www.w3.org/1999/xlink" version="1.1" id="Layer_1" x="0px" y="0px" viewBox="0 2 98 98" style="enable-background:new 0 2 98 98;" xml:space="preserve" width="512" height="512">
<style type="text/css">
	.st0{fill:url(#SVGID_1_);}
	.st1{fill:url(#SVGID_2_);}
	.st2{fill:url(#SVGID_3_);}
	.st3{fill:url(#SVGID_4_);}
	.st4{fill:url(#SVGID_5_);}
</style>
<g>
	<linearGradient id="SVGID_1_" gradientUnits="userSpaceOnUse" x1="49" y1="17.75" x2="49" y2="89.0631">
		<stop offset="0" style="stop-color:#00EFD1"/>
		<stop offset="1" style="stop-color:#00ACEA"/>
	</linearGradient>
	<path class="st0" d="M49,39.5c-6.3,0-11.5,5.2-11.5,11.5S42.7,62.5,49,62.5S60.5,57.3,60.5,51S55.3,39.5,49,39.5z M49,56.5   c-3,0-5.5-2.5-5.5-5.5s2.5-5.5,5.5-5.5s5.5,2.5,5.5,5.5S52,56.5,49,56.5z"/>
	<linearGradient id="SVGID_2_" gradientUnits="userSpaceOnUse" x1="12.6625" y1="17.75" x2="12.6625" y2="89.0631">
		<stop offset="0" style="stop-color:#00EFD1"/>
		<stop offset="1" style="stop-color:#00ACEA"/>
	</linearGradient>
	<path class="st1" d="M20.5,20.9c-1.2-1.2-3.1-1.2-4.2,0c-16.5,16.6-16.5,43.6,0,60.2c0.6,0.6,1.4,0.9,2.1,0.9   c0.8,0,1.5-0.3,2.1-0.9c1.2-1.2,1.2-3.1,0-4.2c-14.2-14.3-14.2-37.5,0-51.8C21.7,23.9,21.7,22,20.5,20.9z"/>
	<linearGradient id="SVGID_3_" gradientUnits="userSpaceOnUse" x1="85.3375" y1="17.75" x2="85.3375" y2="89.0631">
		<stop offset="0" style="stop-color:#00EFD1"/>
		<stop offset="1" style="stop-color:#00ACEA"/>
	</linearGradient>
	<path class="st2" d="M81.7,20.9c-1.2-1.2-3.1-1.2-4.2,0c-1.2,1.2-1.2,3.1,0,4.2c14.2,14.3,14.2,37.5,0,51.8c-1.2,1.2-1.2,3.1,0,4.2   c0.6,0.6,1.3,0.9,2.1,0.9c0.8,0,1.5-0.3,2.1-0.9C98.2,64.5,98.2,37.5,81.7,20.9z"/>
	<linearGradient id="SVGID_4_" gradientUnits="userSpaceOnUse" x1="27.9125" y1="17.75" x2="27.9125" y2="89.0631">
		<stop offset="0" style="stop-color:#00EFD1"/>
		<stop offset="1" style="stop-color:#00ACEA"/>
	</linearGradient>
	<path class="st3" d="M33.2,33.5c-1.2-1.2-3.1-1.2-4.2,0c-9.7,9.7-9.7,25.4,0,35c0.6,0.6,1.4,0.9,2.1,0.9c0.7,0,1.5-0.3,2.1-0.9   c1.2-1.2,1.2-3.1,0-4.2c-7.3-7.3-7.3-19.2,0-26.6C34.4,36.5,34.4,34.7,33.2,33.5z"/>
	<linearGradient id="SVGID_5_" gradientUnits="userSpaceOnUse" x1="70.0875" y1="17.75" x2="70.0875" y2="89.0631">
		<stop offset="0" style="stop-color:#00EFD1"/>
		<stop offset="1" style="stop-color:#00ACEA"/>
	</linearGradient>
	<path class="st4" d="M64.8,33.5c-1.2,1.2-1.2,3.1,0,4.2c7.3,7.3,7.3,19.2,0,26.6c-1.2,1.2-1.2,3.1,0,4.2c0.6,0.6,1.4,0.9,2.1,0.9   c0.7,0,1.5-0.3,2.1-0.9c9.7-9.7,9.7-25.4,0-35C67.8,32.3,66,32.3,64.8,33.5z"/>
</g>
</svg>
