<svg xmlns="http://www.w3.org/2000/svg" xmlns:xlink="http://www.w3.org/1999/xlink" width="160.85" height="110.624" viewBox="0 0 160.85 110.624">
  <defs>
    <linearGradient id="linear-gradient" x1="0.5" y1="-0.036" x2="0.5" y2="1.114" gradientUnits="objectBoundingBox">
      <stop offset="0" stop-color="#08bddc"/>
      <stop offset="1" stop-color="#0175a4"/>
    </linearGradient>
  </defs>
  <g id="Group_44" data-name="Group 44" transform="translate(-353.075 -2648.514)">
    <path id="Path_1" data-name="Path 1" d="M58.019,39.5A20.519,20.519,0,1,0,78.538,60.019,20.637,20.637,0,0,0,58.019,39.5Zm0,30.332a9.813,9.813,0,1,1,9.813-9.813A9.9,9.9,0,0,1,58.019,69.832Z" transform="translate(375.481 2643.807)" fill="url(#linear-gradient)"/>
    <path id="Path_2" data-name="Path 2" d="M33.5,21.606a5.173,5.173,0,0,0-7.494,0,76.355,76.355,0,0,0,0,107.412,5.441,5.441,0,0,0,3.747,1.606,5.353,5.353,0,0,0,3.747-9.1,65.693,65.693,0,0,1,0-92.424A5.173,5.173,0,0,0,33.5,21.606Z" transform="translate(349.15 2628.514)" fill="url(#linear-gradient)"/>
    <path id="Path_3" data-name="Path 3" d="M85.7,21.606A5.3,5.3,0,0,0,78.206,29.1a65.693,65.693,0,0,1,0,92.424,5.3,5.3,0,1,0,7.494,7.494A76.355,76.355,0,0,0,85.7,21.606Z" transform="translate(406.145 2628.514)" fill="url(#linear-gradient)"/>
    <path id="Path_4" data-name="Path 4" d="M42.2,34.206a5.173,5.173,0,0,0-7.494,0,44.045,44.045,0,0,0,0,62.449,5.174,5.174,0,0,0,7.494,0,5.173,5.173,0,0,0,0-7.494,33.708,33.708,0,0,1,0-47.461A5.174,5.174,0,0,0,42.2,34.206Z" transform="translate(363.11 2638.396)" fill="url(#linear-gradient)"/>
    <path id="Path_5" data-name="Path 5" d="M65.506,34.206a5.173,5.173,0,0,0,0,7.494,33.708,33.708,0,0,1,0,47.461,5.173,5.173,0,0,0,0,7.494,5.174,5.174,0,0,0,7.494,0,44.045,44.045,0,0,0,0-62.449A5.174,5.174,0,0,0,65.506,34.206Z" transform="translate(396.185 2638.396)" fill="url(#linear-gradient)"/>
  </g>
</svg>
