<svg xmlns="http://www.w3.org/2000/svg" xmlns:xlink="http://www.w3.org/1999/xlink" viewBox="0 0 1054.4 738.09">
  <g id="coiled-cable-shadow">
    <image id="coiled-cable-shadow-2" data-name="coiled-cable-shadow" width="474" height="368" transform="translate(44)" xlink:href="Keyboard1.png"/>
  </g>
  <g id="bluecase-shadow">
    <image id="bluecase-shadow-2" data-name="bluecase-shadow" width="808" height="421" transform="translate(131 173)" xlink:href="Keyboard2.png"/>
  </g>
  <g id="orangecase-shadow">
    <image id="orangecase-shadow-2" data-name="orangecase-shadow" width="806" height="420" transform="translate(132 174)" xlink:href="Keyboard3.png"/>
  </g>
  <g id="wristrest-shadow">
    <image id="wristrest-shadow-2" data-name="wristrest-shadow" width="768" height="369" transform="translate(286.4 369.09)" xlink:href="Keyboard4.png"/>
  </g>
  <g id="keycaps-shadow">
    <image id="keycaps-shadow-2" data-name="keycaps-shadow" width="772" height="363" transform="translate(147 173)" xlink:href="Keyboard5.png"/>
  </g>
  <g id="straight-cable">
    <image id="straight-cable-2" data-name="straight-cable" width="214" height="219" transform="translate(0 165)" xlink:href="Keyboard6.png"/>
  </g>
  <g id="coiled-cable" style="isolation: isolate">
    <path d="M449,127.38v2l3,2v1c3.73,2.54,4.7-.77,5,6h1v3c3.52.69,5.43,2.65,8,4h2v1h3l2,3h3v1h2v1h3v1h2v1h3v1h3v1l6,2v1h2c.33.67.67,1.34,1,2l4,1c.33.67.67,1.34,1,2h2l3,4h1v2l2,1v2h1v2h1v2h1v2h1v2h1v2h1c1.79,4.58,2.8,23.05,0,26a14.27,14.27,0,0,1-5,8v1h-2c-.33.67-.67,1.34-1,2l-6,1-3,4c-2.24,1.44-5.36,0-8,1v1h-2c-.33.67-.67,1.34-1,2l-8,1v1l-4,1v1h-6c-.33.67-.67,1.34-1,2l-5,1v1h-5c-.33.67-.67,1.34-1,2h-2v1h-2v1h-5l-3,4-10,2-2,3h-2v1h-7c-.33.67-.67,1.34-1,2l-3,1v1h-3v1h-1c-.38-.18-.27-1.78-2-1l-3,4h-2v1h-7c-.33.67-.67,1.34-1,2h-2c-.33.67-.67,1.34-1,2h-6l-2,3h-2v1h-8l-2,3-4,1v1l-5-1-4,5h-2v1l-6-1-4,5h-2v1c-2.45.94-4.77-.74-6-1-.33.67-.67,1.34-1,2h-2c-.33.67-.67,1.34-1,2h-3v1l-5-1v1h-2l-2,3h-7l-2,3h-2v1l-5,1s-.59-1.58-2-1l-2,3h-2c-.33.67-.67,1.34-1,2l-8,1c-.33.67-.67,1.34-1,2l-3,1v1l-9,1c-.33.67-.67,1.34-1,2h-2v1h-2v1h-7l-2,3-5,1v1h-6c-.33.67-.67,1.34-1,2h-2v1h-4v1h-1c-.39-.18-.25-1.76-2-1l-2,3h-2v1l-9,1v1h-2v1h-3v1h-3v1h-4l-3,4c-3.49,1.93-6.63-1-9,0l-3,4h-2v1c-2.48.94-4.75-.81-6-1v1h-2l-2,3c-2.69,1.25-6.7-1.47-8-1,0,0-3.79,4.56-5,5h-4v-1c-3.55-.53-4.78,3.58-5,7,3.43,1.9,3,3.18,5,6l6,5,1,2h4v1l4,1,3,4h1v1h-1c-2.21,2.45-4.19,1.54-7,3v1h-2v1h-2c-4.37,2.29-8.45,4.65-15,5-.28-1.88-1-2-1-2v-5h-1a16.38,16.38,0,0,0-4-7l-2-1v-2l-2-1v-2l-3-2v-2c-.43-.62-1.32-.78-2-2h-2c-2.79,5.06-6.87,8.07-15,8v-1l-5-1-1-2h-2l-1-2-4-3v-2l-2-1v-2h-1v-3h-1v-2h-1c-.33-1.33-.67-2.66-1-4h-1c-1.41-3.22-4.77-18.4-3-24h1c.33-1.66.67-3.33,1-5l3-2c1.89-1.95,5.05-2,9-2l1-3c1.74-.63,2.88-.37,5-1v-1l4,1,4-5c2.38-1.52,6.05.44,9-1l3-4c2.62-1.25,7.68.56,9,1l2-4c2.76-1.92,7.51.66,11-1l2-3h2v-1h8l1-2c3.06-1.76,7.23-1.94,12-2v-2l10-1,3-4,9-1v-2a51.12,51.12,0,0,0,8-2v-1l4,1,2-3h2v-1l6-1c.55.54-.3,1.56,1,1l3-4,10-1,2-3h2v-1h8c.33-.66.67-1.33,1-2,2.6-2.2,5.19-2.84,10-3,1.14,1.14,0,.4,2,1,.72-2.76.28-2.23,3-3,1.86-2.18,4.8-2.09,9-2v-2l4-1v-1l6,1,2-3h2c4.28-2.09,3.76-1.14,9-1,.61-2.39.32-1.86,2-3,2.94-2.8,5.53-.29,9-2l3-4h8l2-3h2v-1l8-1,3-4c2.42-1.24,7.32.27,8,0,.33-.66.67-1.33,1-2,2.17-1.79,4.34-2.6,8-3,1.14,1.14,0,.4,2,1,.33-1,.67-2,1-3l3-1v-1h7l2-3,7-2c.84.67-.35,1.42,1,1v-1h2l2-3,10-1c.67-1.33,1.33-2.66,2-4l9-1v-1c1.14-1.14.4,0,1-2l10-1c.67-1.33,1.33-2.66,2-4h2v-1h7l2-3h2v-1c2.65-1,5.65.78,7,1l3-4h8c.33-1,.67-2,1-3,1.81-2,5.13-1.91,9-2,.68-2.92,1.11-3.27,4-4v-3h-1c-3.33-3.64-8.18-2.87-13-5v-1l-4-1v-1l-9-2v-1h-2c-.33-.66-.67-1.33-1-2-5.15-2.18-6.7,3.85-12,2v-1l-4-1c-.33-.66-.67-1.33-1-2h-2v-1h-4v-1h-2c-.33-.66-.67-1.33-1-2h-2v-1l-3-1c-.33-.66-.67-1.33-1-2H411a25.12,25.12,0,0,1-8-5c-.33-.66-.67-1.33-1-2h-3v-1h-2v-1h-2v-1h-2v-1h-2v-1l-4-1c-.33-.66-.67-1.33-1-2h-2c-.33-.66-.67-1.33-1-2l-3-1c-1.56-2-2.47-5.18-3-8-3.42-.07-5.73-.55-8-2-.33-.66-.67-1.33-1-2l-3-1c-1-1.46.28-2.95-1-4-3.67-3-5.69.44-6-7h-1c.33-1,.67-2,1-3h-1v-2l-6-2c-.33-.66-.67-1.33-1-2l-6-2c-.33-.66-.67-1.33-1-2h-2v-1h-2l-2-2h-2c-.33-.66-.67-1.33-1-2h-2v-1l-6-2c-.33-.66-.67-1.33-1-2a42,42,0,0,0-11-5v1c3,1.94,6.18,8.17,9,11l4,3v2l3,2,2,6h1v3h1v3h1c2.27,7.12-2.15,19.5-4,23-.33,1.34-.67,2.67-1,4l-2,1v2l-2,1v2l-4,3v2l-2,1-6,7h-2l-3,4h-2l-2,3h-2c-.33.67-.67,1.34-1,2h-2l-2,3h-2c-.33.67-.67,1.34-1,2l-3,1v1l-4,1v1h-2v1h-2v1h-2v1h-2v1h-2v1h-2v1l-4,1v1h-2v1h-3v1l-4,1v1l-36,12h-5c-7.31,2.33-17.41,3.76-25,6h-7v1h-9c-7.33,2-19,.78-28,1-11.05.28-25.74-.77-36-4h-5v-1h-3v-1l-7-1v-1h-2v-1l-6-1v-1H92v-1H89v-1l-5-1c-.33-.66-.67-1.33-1-2H80v-1H78v-1H76v-1H74c-.33-.66-.67-1.33-1-2H71c-.33-.66-.67-1.33-1-2H68v-1c-1.76-1.44-2.41-2.27-5-3v-2c-4.5-1.21-4.75-3.69-7-7l-2-1v-2l-2-1v-2H51l-2-6H48c-.67-3-1.33-6-2-9H45v-13h1v-7h1v-5h1v-4q4-8,8-16l2-1v-2l2-1v-2l6-5v-2l10-9,4-5h2l3-4h2l2-3h2l2-3h2l1-2h2l1-2,3-1v-1l6-2,1-2h2v-1h2v-1h3v-1l4-1v-1l6-1v-1h2v-1l6-1v-1h2v-1h4v-1h3v-1l7-1v-1l10-1v-1h4v-1h4v-1h6v-1h11c3.49-1,17.09-2.37,22-1v1h15c9.82,0,19.64.26,27,3v-2l-4-3v-2l-3-2v-2l-2-1-1-3h-1l-1-3c3.83-2.28,4.54-6.28,10-7v1l3,1,4,5h2l3,4h5v1h2l2,3h2l2,3h2l4,5h2l7,8,3,2v2l8,7,2,3,5,1c.33.67.67,1.34,1,2l16,7c.33.67.67,1.34,1,2l4,1c.33.67.67,1.34,1,2l6,2c.33.67.67,1.34,1,2h2v1h2v1h2l2,2h2c.33.67.67,1.34,1,2h2c.33.67.67,1.34,1,2h2v1l4,1v1l6,1v1h2v1h1v-1h2c.95-.44.06-2.55,3-2v1l7,2v1l5-1c.33.67.67,1.34,1,2h2c.33.67.67,1.34,1,2h2c.33.67.67,1.34,1,2h3v1c1.41.11-.4-.78,1-1l11,1v1l4,1v1h2c.33.67.67,1.34,1,2h2c.33.67.67,1.34,1,2h2l2,3,5,1v1h2c.33.67.67,1.34,1,2h2c.33.67.67,1.34,1,2l4,3v2l2,1v3c1.15,1.6,2.95.13,5,1v1l6,2v1A8.31,8.31,0,0,0,449,127.38Z" transform="translate(0 -9.38)" fill="none" fill-rule="evenodd"/>
    <path d="M191,40.38c-3,2.5-11.49.64-16,2-8.47,2.56-18.8,4.21-27,7l-8,1-23,9-1,2h-2v1h-2l-2,2h-2c-.33.67-.67,1.34-1,2l-6,2c-.33.67-.67,1.34-1,2H98c-.33.67-.67,1.34-1,2l-3,1-2,3H90l-10,11-7,6v2l-3,2v2l-2,1v2l-2,1-9,18v5c-1,3.08-3.66,9.57-2,15h1v4h1c.33,2,.67,4,1,6h1c.33,1.34.67,2.67,1,4h1v2l2,1v2l4,3,6,7h2c.33.67.67,1.34,1,2h2c.33.67.67,1.34,1,2h2c.33.67.67,1.34,1,2l3,1v-1l-15-11-1-3-4-3v-2l-2-1v-2l-2-1v-2H60v-2H59c-.33-2.33-.67-4.66-1-7H57q.49-10,1-20h1v-2h1v-3h1v-2h1c.67-2,1.33-4,2-6l3-2v-2l7-6,2-3h2l4-5h2c.33-.66.67-1.33,1-2h2l2-3h2c.33-.66.67-1.33,1-2l3-1v-1l4-1c.33-.66.67-1.33,1-2l4-1v-1l6-2v-1h3v-1h2v-1l6-1v-1l7-1v-1l9-1v-1h4v-1h6v-1h6v-1h6v-1l24-2h10v-1h34v1l23,1c5.13,1.47,12.17,2.41,17,4h4v1l6,1v1h2v1l8,1v1h3v1l5,1v1h2v1h3c.33.67.67,1.34,1,2h2c.59.39.8,1.34,2,2v-2c-2.44-1.54-.62-1.2-2-3l-2-1v-1h-2l-2-2v-2l-2-2h-2l-4-5h-2c-.33-.66-.67-1.33-1-2l-15-5v-1h-2v-1l-6-1v-1h-2v-1h-3v-1h-3v-1h-3v-1l-7-1v-1l-11-1C222.19,39.86,206.12,40.55,191,40.38Z" transform="translate(0 -9.38)" fill="none" fill-rule="evenodd"/>
    <path d="M211,66.38c-3,2.53-14,1-19,1l-38,3v1h-6v1h-4v1h-5v1h-3v1h-5l-23,9c-.33.67-.67,1.34-1,2l-6,2v1l-3,1c-.33.67-.67,1.34-1,2H95c-.33.67-.67,1.34-1,2l-3,1-2,3H87l-5,6-6,5v2l-2,1c-.33,1.34-.67,2.67-1,4H72c-.67,2-1.33,4-2,6H69v3H68v5c-.42,1.43-1.94,6.07-1,9h1v3h1v3h1v3h1v2l2,1v2l4,3v2l12,10h2l2,3,4,1v1h2v1h2v1l6,2v1l13,3v1h6v1h6v1h9v1h13v1l24-1v-1l20-1v-1h5v-1h5v-1l10-1v-1h3v-1l9-1v-1l6-1v-1h2v-1h3v-1h2v-1h3v-1l4-1v-1h3v-1h2v-1h3v-1l6-2v-1h2v-1l6-2c.33-.66.67-1.33,1-2h2c.33-.66.67-1.33,1-2h2c.33-.66.67-1.33,1-2h2l2-3h2l2-3h2l2-3h2l3-4c5.58-5.55,11.61-10.2,15-18q1-5,2-10h1c1.34-4.53-.32-17.21-2-19-1.09-3.84-2.78-4.29-6-6v-1l-5-1v-1l-6-2v-1h-3v-1h-2v-1l-9-2C262.42,69.08,236.4,66.59,211,66.38Z" transform="translate(0 -9.38)" fill="none" fill-rule="evenodd"/>
    <path d="M324,113.38l-3,11h-1v2l-2,1c-.33,1.34-.67,2.67-1,4l-2,1v2l-3,2c-.33,1-.67,2-1,3l-5,4-3,4h-2v1c-1.73,1.43-2.41,2.34-5,3v1h2c2-3,.91-.44,3-2l4-5h2l3-4h1v-2l4-3v-2l2-1v-1l2-1,2-6h1c.58-1.1,3.9-10.25,3-12Z" transform="translate(0 -9.38)" fill="none" fill-rule="evenodd"/>
    <path d="M294,153.38c-.33.67-.67,1.34-1,2,.07,0,2.9-1.58,2-2Z" transform="translate(0 -9.38)" fill="none" fill-rule="evenodd"/>
  </g>
  <g id="blue-case" style="isolation: isolate">
    <path d="M937,318.38c.33,1.34.67,2.67,1,4h1c1.57,4.53-1.16,13.26-2,16l-3,26c-2.85,1.52-5,4.62-8,6h-3v1h-2v1l-9,2v1h-2v1l-6,1v1h-3v1h-2v1h-3v1l-9,2v1h-2v1l-9,2v1h-2v1h-3v1h-3v1h-3v1h-3v1h-2v1l-6,1v1l-6,1v1h-2v1h-3v1l-9,2c-28.33,12.42-60.6,20.6-89,33l-6,1v1h-3v1h-2v1h-3v1h-3v1h-3v1h-3v1h-2v1h-3v1h-3v1h-3v1h-3v1h-3v1h-2v1l-6,1c-4.36,1.75-9.64,4.26-14,6l-9,2c-23.86,10.44-51.13,17.59-75,28l-9,2c-4.37,1.75-9.63,4.25-14,6l-6,1v1h-2v1l-9,2c-4.37,1.75-9.63,4.25-14,6l-6,1v1h-2v1h-3v1h-3v1h-3v1h-3v1h-3v1h-3v1h-2v1h-3v1l-6,1v1h-2v1l-9,2v1l-9,2c-27.38,12-58.56,20-86,32h-3v1h-3v1h-3v1h-3v1h-3c-15.79,6.9-34.22,12.14-50,19h-3v1h-3v1h-3v1h-3v1h-3v1h-2v1l-6,1v1h-3v1h-2v1h-3v1l-9,2v1h-2v1h-3v1h-3v1h-3v1h-3v1h-3v1h-2v1h-3v1c-5.74,1.86-16.43-1.21-19-3v-1l-2-1v-2l-4-3v-2l-4-3v-2l-4-3v-2l-4-3v-2l-4-3v-2l-4-3v-2l-4-3v-2l-4-3v-2l-4-3v-2l-4-3v-2l-4-3v-2l-4-3v-2l-3-2v-2l-4-3v-2l-4-3v-2l-4-3v-2l-4-3v-2l-2-1v-1l-2-1v-2l-4-3v-2l-2-1v-1l-2-1v-2l-4-3v-2l-4-3v-2l-3-2v-2l-4-3v-2l-4-3v-2l-4-3v-2l-4-3v-2l-4-3v-2l-3-2v-2l-4-3v-2l-2-1v-2h-1v-18h-1c-1.45-5.14,0-15.38,1-19v-12l3-9,78-26h4v-1h3v-1h3v-1h3v-1h3v-1h3v-1l6-1v-1h4v-1l6-1v-1h3v-1h3v-1h3v-1l10-2v-1l6-1v-1l9-2v-1h4v-1h3v-1h3v-1h3v-1h3v-1h3v-1h4v-1l6-1v-1h3v-1h3v-1h3v-1h3v-1h3v-1h3v-1h4v-1h3v-1h3v-1h3v-1h3v-1l7-1c50.66-18.48,105.22-32.59,156-51h4v-1h3v-1h3v-1h3v-1h3v-1h4v-1h3v-1h3v-1h3v-1h3v-1h3v-1h3v-1l6-1v-1h4v-1h3v-1h3v-1h3v-1h3v-1h4v-1h3v-1h3v-1h3v-1h3v-1h3v-1l6-1v-1h4v-1h3v-1h3v-1h3v-1l6-1v-1h3v-1h3v-1h3v-1l10-2v-1h3v-1l6-1v-1l6-1v-1h4v-1h3v-1h3v-1h3v-1h3v-1h4v-1h3v-1h3v-1h3v-1h3v-1h3v-1l6-1v-1h4v-1h3v-1h3v-1h3v-1h3v-1h3v-1h4v-1h3v-1h3v-1h3v-1h3v-1h3v-1l10-2v-1l6-1v-1l13-3v-1h3v-1h3v-1h3v-1l6-1v-1l15-2c8.74,2.57,12.42,8.43,18,14l4,3,1,2h2l14,15,3,2v1h2l14,15h2l16,17h2l6,7,14,12,10,11h2v1l3,2,10,11h2l1,2,4,3,8,9h2l1,2C929.79,314,932.78,317.29,937,318.38Z" transform="translate(0 -9.38)" fill="none" fill-rule="evenodd"/>
  </g>
  <g id="orange-case" style="isolation: isolate">
    <path d="M936,372.38l-18,5v1h-2v1l-9,2v1h-3v1h-3v1h-3v1h-3v1l-6,1v1h-2v1l-7,1v1h-2v1h-3v1h-3v1h-3v1h-3v1h-3v1h-3v1l-6,1c-4.37,1.76-9.63,4.25-14,6l-9,2v1h-3v1h-3v1h-3v1h-3v1h-2v1l-9,2v1l-18,5v1h-2v1h-3v1h-3v1h-3v1h-3v1h-3c-9.25,3.7-19.71,7.3-29,11h-3v1h-3v1h-3v1h-3v1h-2v1l-7,1c-30.57,12.3-64.41,21.69-95,34h-3v1h-3v1h-3v1h-3c-9.25,3.7-19.71,7.3-29,11h-3v1h-3v1h-3v1h-3v1h-2v1l-18,5v1h-3v1h-3v1h-3v1h-2v1h-3v1h-4v1h-2v1l-6,1v1l-9,2v1h-3v1h-3v1h-3v1h-3v1h-2v1h-3v1h-3v1h-3v1h-3c-11.24,4.49-23.79,8.53-35,13h-3v1h-3v1h-3v1h-3v1h-2v1l-21,6c-4.36,1.74-9.64,4.26-14,6l-9,2v1h-3v1h-3v1h-3v1h-3v1h-2v1l-7,1v1h-2v1h-3v1h-3v1h-3v1h-3v1h-3v1h-3v1h-2v1l-7,1v1h-2v1h-3v1h-3v1h-3v1h-3v1h-3v1h-3v1l-6,1v1h-3v1h-2v1l-6,1v1h-3v1h-3v1h-3v1h-3v1l-9,2v1h-2v1l-9,2c-5.33,2.12-11.42,5.24-18,6v-2l-13-12v-2l-9-8-3-4h-1v-2l-13-12v-2l-13-12v-2l-13-12v-2l-13-12v-2l-9-8-3-4-2-1v-2l-13-12v-2l-10-9-8-10-7-6v-19c-2.12-2.42-1-10.76-1-15q-.5-19.5-1-39h1v-1c3.91-.24,6.24-2,9-3h4v-1h3v-1h3v-1h3v-1l7-1v-1h3v-1h3v-1h3v-1h3v-1l10-2v-1h3v-1l6-1v-1h4v-1h3v-1h3v-1h3v-1h3v-1l6-1v-1h4v-1h3v-1h3v-1h3v-1h3v-1h3v-1h4v-1h3v-1h3v-1h3v-1h3v-1h4v-1h3v-1h3v-1h3v-1h3v-1h3v-1h4v-1h3v-1h3v-1h3v-1h3v-1h4v-1h3v-1h3v-1h3v-1h3v-1l7-1c15.73-6.24,34.21-10.74,50-17l7-1v-1h3v-1h3v-1h3v-1h3v-1h4v-1l6-1v-1h3v-1h3v-1l10-2v-1h3v-1h3v-1l7-1c47-17.14,98-29.95,145-47h4v-1h3v-1h3v-1h3v-1h3v-1h4v-1h3v-1h3v-1h3v-1h3v-1h3v-1h4v-1l6-1v-1h3v-1h3v-1l10-2v-1h3v-1h3v-1l7-1v-1h3v-1h3v-1h3v-1h3v-1l6-1v-1h4v-1h3v-1h3v-1h3v-1h3v-1h3v-1h4v-1h3v-1h3v-1h3v-1h3v-1h4v-1h3v-1h3v-1h3v-1h3v-1h4v-1h3v-1h3v-1h3v-1h3v-1l10-2v-1h3v-1h3v-1h3v-1h3v-1h3v-1l13-3v-1l6-1v-1h4c5.36-1.93,9.68-4.69,17-5,2.41,4.12,6.72,6.72,10,10l18,19h2l1,2,4,3,24,25h2l1,2,6,5c7.93,7.94,14.75,16.32,24,23l26,27,3,2v1h2l20,21,9,8v33h-1Z" transform="translate(0 -9.38)" fill="none" fill-rule="evenodd"/>
  </g>
  <g id="wrist-rest" style="isolation: isolate">
    <path d="M941.28,380h4c2.1,3.15,6.79,4.83,10,7l1,2h2l2,3h2l1,2h2l2,3h2l2,3h2l1,2h2l2,3h2l2,3h2l3,4h2l2,3h2l3,4h2l3,4h2l3,4h2l4,5h2l5,6h2l8,9,3,1,17,19v2l2,1v15c3.12,3.28-.33,10.23-1,13-1.28.63-1.43,1.64-2,2h-2v1h-2v1l-6,2v1h-3v1h-3v1h-2v1h-3v1h-2v1l-5,1v1h-3v1h-2v1h-3v1h-2v1l-6,1v1h-2v1l-6,1v1h-2v1h-3v1h-2v1l-6,1v1h-2v1h-3v1h-2v1h-3v1h-3v1l-5,1v1h-2v1h-3v1h-2v1l-6,1v1h-2v1l-6,1v1h-2v1h-3v1h-2v1l-6,1v1h-2v1h-3v1h-3c-42.68,18.75-89.25,33.28-132,52l-6,1v1h-2v1l-5,1v1l-6,1v1h-2v1h-3v1h-2v1l-6,1v1h-2v1h-3v1h-2v1l-6,1v1h-2v1l-6,1c-39.41,17.29-82.58,30.74-122,48l-6,1v1h-2v1l-6,1v1h-2v1l-6,1v1l-5,1v1h-2v1h-3v1h-2v1l-6,1v1h-2v1l-5,1v1l-6,1v1h-2v1l-6,1v1h-2v1l-5,1v1l-6,1v1h-2v1l-6,1v1h-2v1h-3v1h-2v1l-6,1v1h-2v1h-3v1h-2v1l-6,1v1h-2v1l-6,1v1h-2v1h-3v1h-2v1h-3v1h-3v1h-2v1l-5,1v1l-6,1v1h-2v1l-6,1v1h-2v1l-6,1v1h-2v1h-3v1h-2v1l-6,1v1h-2v1h-3v1h-2v1l-6,1v1h-2v1l-6,1v1h-2v1l-7,1v1h-3v1h-4v1h-8v1h-5v-1h-6v-1h-3v-1l-4-1v-1h-2l-1-2h-2l-4-5-10-9v-2l-9-8v-2l-7-6v-2l-7-6v-2l-5-4v-2l-3-2-2-3h-1v-2l-6-5v-2l-6-5v-2l-4-3v-2l-5-4v-2l-5-4v-2l-4-3v-2l-4-3v-2l-3-2v-2l-2-1v-3c-2.5-6.45-2-16.78-2-26,10.47-3.78,21.93-7.94,32-12l18-5v-1h2v-1h3v-1h3v-1h3v-1h3v-1l9-2v-1h2v-1h3v-1l6-1v-1l9-2v-1h2v-1l18-5v-1h3v-1h2v-1l9-2v-1l9-2v-1h2v-1h3v-1h3v-1h3v-1h3v-1h3v-1h2v-1l18-5c4.35-1.74,9.64-4.26,14-6l9-2v-1h2v-1h3v-1h3v-1h3v-1h3v-1h3v-1h3v-1h2v-1l21-6c25.05-11,53.93-18.06,79-29l6-1v-1h3v-1h3v-1h3v-1h3v-1h3v-1h3v-1h2v-1l9-2v-1h3v-1h2v-1l9-2v-1l6-1v-1h3v-1h3v-1h3v-1h3c26-11.38,56-18.65,82-30l21-6v-1h2v-1h3v-1h3v-1h3v-1h3v-1h3v-1h2v-1l18-5v-1h2v-1h3v-1h3v-1h3v-1h3v-1h3c4.35-1.74,9.64-4.26,14-6l9-2v-1h2v-1h3v-1l9-2v-1h3v-1h3v-1h3v-1h2v-1l9-2v-1l6-1v-1h2v-1l9-2v-1l9-2v-1h2v-1h3v-1l9-2v-1h3v-1h3v-1h3v-1l5-1Z" transform="translate(0 -9.38)" fill="none" fill-rule="evenodd"/>
  </g>
  <g id="right-keycaps" style="isolation: isolate">
    <path d="M777,183.38c3.1-.11,7.41-.47,9,1,2.46.63,6.74,3.28,8,5v2l4,3c3.42,4.88,4.71,11,7,17h-2v1l-10,2v1h-3v1h-4v1h-4v1h-2v1h-4v1h-2v1h-4l-1,2c-.69.36-3.13.63-4,1-.32-8.51-4.23-13.78-8-19-.65-.89-7.54-6-7-7h1c.72-2.47.51-1.62,2-3v-1h2l2-3,6-2v-1l6-1v-1h2v-1l6-1Z" transform="translate(0 -9.38)" fill="none" fill-rule="evenodd"/>
    <path d="M888,291.38c3-.67,6.47-3.16,9-1,4.47,1.15,6.17,5.2,9,8l3,2v1h2v1l3,2v2l2,1c2.54,4.15,2.1,11.39,2,18-1.13.85-.15-.12-1,1-5.53.11-9.07,2.43-13,4l-9,2v1h-2v1h-3v1h-3v1h-3v1h-3v1h-3v1h-3v1h-3v1h-3v1h-4v1l-9,2c-10.41,4.16-22.59,7.85-33,12h-3v1h-3v1h-3v1h-3v1h-2v1l-6,1v1l-9,2v1h-2v1h-3v1l-9,2c-9.25,4-18.07,8.58-31,9,0-10.45-5.5-18.8-10-25l-7-5v-3c5.06-2.68,9.55-7.8,15-10h4v-1h3v-1h4v-1h2v-1h3v-1h2v-1h4v-1h2v-1h4v-1h3v-1h2v-1h4c1.74-.62,5.3-3.49,9-2,.32.13.21,1.35,3,2,.94-1.8,1.38-1.57,2-4-3.67-3.24-4.23-9.81-7-14l-3-2v-2l-2-1c-2.27-2.4-6-5.56-7-9l4-3v-1c3.28-2.38,4.75-1.31,5-7h-1c-.33-1.66-.67-3.33-1-5l-2-1v-2l-2-1v-2h-1a8.05,8.05,0,0,1-2-4c-3.26-.78-5.56-3.44-7-6l4-3v-1h2l2-3h2l1-2h2v-1l4-1v-1h4v-1h2v-1h4v-1h4v-1h3v-1h4v-1h3v-1h3v-1h3v-1l7-1v-1h2v-1h3v-1a23.58,23.58,0,0,1,8-2l18,16,3,9-1,3h2v-1h7c1.65,2.57,4.87,3.88,7,6l12,13C887.33,284.72,887.67,288.05,888,291.38Z" transform="translate(0 -9.38)" fill="none" fill-rule="evenodd"/>
  </g>
  <g id="mid-keycaps" style="isolation: isolate">
    <path d="M779,268.38a7.81,7.81,0,0,0,2,4h1v2l2,1a22.58,22.58,0,0,1,4,12l-3,2v1c-3,2.12-5,1.89-6,6l9,8v2l3,2c2.75,4.16,3.33,10.82,7,14-.57,2,.12.87-1,2-1.13,1.72-.63,1.36-3,2-2.9-4.34-6.92-1.12-10,0l-6,1v1h-3v1h-4v1h-2v1h-4v1h-2v1l-5,1v1h-4v1l-7,1v1l-4,1v1h-2l-1,2h-2l-2,3h-2v1c-1.65,1.54-1.65.82-2,4,8.34,4.5,16.91,17.17,17,30-3.76.28-5.37,1.92-8,3h-3v1h-2v1l-6,1v1h-3v1h-3v1h-3v1h-2v1h-3v1h-3v1h-3v1h-3v1h-3v1h-2v1l-6,1v1l-6,1v1l-9,2v1h-2v1l-185,62c-.7-3.5-2.56-5.46-4-8v-2l-2-1v-2l-4-3v-2l-3-2v-2l-3-2v-2l-6-5v-2c-.86-1.06-4.27-1.39-5-2v-1l-15,5v1h-2v1l-6,1v1h-5v1l-11,2v1h-4v1l-4,1v1h-2c-.33.67-.67,1.34-1,2h-2l-2,3h-2l-4,5h-6v-1l-7-1v1h-2v1h-4v1h-3v1l-6,2v1l-4,1c-.33.67-.67,1.34-1,2-2.64,1.65-5,1.78-9,2l-5-6h-1v-2l-2-1v-2l-3-2v-2h-1c-.33-1-.67-2-1-3l-3-2c-.33-1.33-.67-2.66-1-4l-2-1c-3-3.21-3.75-5.73-10-6v1l-7,1c-4.41,1.58-6.73,3.83-13,4-.67-1.3-1.55-1.34-2-2v-2l-3-2v-2l-3-2v-2l-3-2v-2l-2-1v-2l-3-2v-2h-1l-4-5h-8c-1.95,1.72-5.34,1-8,2-7.51,2.93-12.16,5.88-23,6l-2-3h-1v-2l-2-1v-2l-2-1v-2l-2-1v-2l-3-2v-2l-5-4v-2h-1l-2-3c-1.59-1-4.37-1-7-1v1l-7,1v1a25.63,25.63,0,0,1-11,3l-6-5v-2l-2-1v-2l-5-4v-2c-1.85-2.57-3.82-1.67-5-6,2.44-1.56.61-1.14,2-3l5-4v-1h2l1-2,4-1v-1h2v-1h2v-1h3c6.05-2.66,11.19-5.8,20-6a9.1,9.1,0,0,0,6,5c5.74-9.82,24.26-17.93,40-18,1.2,2.19,2.2,3.3,5,4,4.46-7.58,15.11-11.83,24-15h4c3.94-1.4,5.05-2.82,11-3,1.2,2.19,2.2,3.3,5,4,5.66-9.9,23.17-18,39-18,1.36,2.39,2.85,3.35,6,4,1.67-6.36,12.17-11.52,18-14h3v-1h4c1.82-.64,8.61-4.22,12-3v1h2v1a8.49,8.49,0,0,0,4,2c5.56-9.51,23.05-17.79,38-18,1.2,2.19,2.2,3.3,5,4,5.51-9.54,20.3-13.53,32-17,5.42-1.6,9.52,4.25,10,4v-1c1.72-1.12,1.36-.63,2-3,3-.79,3.95-2.34,6-4v-1h2v-1h2v-1h2v-1h3v-1h2v-1l6-1v-1h3c1.72-.67,6.21-3.71,10-2v1c1.93,1.26,1.87,1.6,5,2,4.72-8.06,22.79-15.9,36-16a10.46,10.46,0,0,0,4,4v-1l6-5v-1h2l1-2h2l1-2,14-4c2-.8,7.25-4.3,11-3v1h2v1c1.39.89,1.74.72,4,1,4.18-7.12,23.62-15.69,35-16a13,13,0,0,0,5,4v-1l5-3,1-2h2l2-3h2v-1l4-1v-1l6-1v-1h4c2.19-.77,6.56-3.52,11-2v1l5,1c.69-2.49.52-1.62,2-3v-1h2l2-3,4-1v-1l4-1v-1l5-1v-1l9-2v-1h8c1.71,2,2.32.84,4,2l1,2,6,5v2l4,3v2h1c.33,1.34.67,2.67,1,4h1c1.24,3.08-.11,5.75,2,8v-1h3l1-2h4v-1h2v-1h4v-1h2v-1l8-1v-1h3v-1h3v-1h4c4-1.43,6.38-3.64,12-4,6.92,8.36,19.64,13.24,20,28-3,1.12-6.34,3-9,4l-13,3v1l-7,1v1l-8,1v1h-2v1h-4v1l-4,1v1h-2l-1,2h-2l-2,3h-2v1l-4,3v1h1A9.1,9.1,0,0,0,779,268.38Z" transform="translate(0 -9.38)" fill="none" fill-rule="evenodd"/>
  </g>
  <g id="left-keycaps" style="isolation: isolate">
    <path d="M182,373.38h6c2,3.79,5.16,7,8,10l2,1v2l5,4v2l2,1v2l2,1c2.47,2.56,2.88,3.78,8,4v-1h3v-1a38.06,38.06,0,0,1,16-4v1h2l2,3h1v2l5,4v2l3,2v2l2,1v2l2,1v2l2,1v2l3,2v1h7c2-1.75,5.38-.88,8-2,7.4-3.16,12.9-5.91,24-6,1.37,2.49,3.73,3.25,5,5v2l3,2v2l2,1v2l2,1c.33,1,.67,2,1,3l3,2v2l3,2v2h1c.33.67.67,1.34,1,2h5c2.11-2.37,14.35-5.77,19-6l8,7c.33,1.34.67,2.67,1,4l3,2v2l2,1v2l3,2v2l2,1v2h1l5,6h5c1.81-2.09,4.45-2.56,7-4v-1h2v-1h2v-1h2v-1h2v-1h3v-1h4v-1h2v-1l7,1v1h6c2-3.43,3.06-2.91,6-5l2-3h2c.33-.66.67-1.33,1-2h2v-1l4-1v-1h4v-1l11-2v-1h5v-1h3v-1h3v-1h2v-1h3v-1l12-4v1l4,1c.33,1,.67,2,1,3l6,5v2l3,2v2l3,2v2l4,3v2l2,1c1.79,2.82,1.6,5.91,4,8-.57,2,.12.87-1,2v1l-5,1v1h-3v1h-3v1h-3v1h-3v1h-3v1h-2v1l-9,2v1l-9,2v1h-2v1l-9,2v1l-9,2v1h-3v1h-2v1l-6,1v1l-9,2v1h-2v1l-10,2v1h-2v1h-3v1h-3v1h-3v1h-3v1h-3v1h-2v1l-9,2v1l-6,1v1h-2v1h-3v1l-7,1v1h-3v1h-2v1l-7,1v1h-3v1h-3v1h-3v1h-3v1h-3v1h-3v1l-6,1v1l-7,1v1h-2v1l-10,2v1h-3v1h-2v1l-6,1v1h-3v1h-3v1l-5,1v1l-12,4v-1l-4-3v-2l-3-2v-2l-2-1c-.33-1-.67-2-1-3l-4-3v-2l-2-1-1-3-4-3v-2l-3-2v-2l-4-3v-2l-3-2v-2l-3-2v-2l-4-3v-2l-2-1-1-3-4-3v-2l-2-1-1-3-4-3v-2l-3-2v-2l-2-1v-1l-2-1v-2l-4-3v-2l-2-1v-1l-2-1v-2l-4-3v-2l-4-3v-2l-4-3v-2l-3-2v-2l-4-3v-2l-4-3v-2l-2-1-1-3-4-3v-2l-3-2v-2l-2-1v-1l-2-1v-2l-4-3v-2l-3-2-1-3h-1c-1.92-2.28-4.09-3.72-5-7-.58-1.29-1.15.41-1-1l2-1c.33-1.33.67-2.66,1-4l2-1v-2l2-2h2l1-2h2l1-2,5-1v-1h2v-1h3v-1h4v-1C176.67,374.4,180.09,375.08,182,373.38Z" transform="translate(0 -9.38)" fill="none" fill-rule="evenodd"/>
  </g>
</svg>
