<svg id="settings_1_" data-name="settings (1)" xmlns="http://www.w3.org/2000/svg" xmlns:xlink="http://www.w3.org/1999/xlink" width="121.01" height="121.01" viewBox="0 0 121.01 121.01">
  <defs>
    <linearGradient id="linear-gradient" x1="0.14" y1="0.14" x2="0.909" y2="0.909" gradientUnits="objectBoundingBox">
      <stop offset="0" stop-color="#b5dbff"/>
      <stop offset="1" stop-color="#48b2e3"/>
    </linearGradient>
    <linearGradient id="linear-gradient-2" x1="0.14" y1="0.551" x2="0.909" y2="1.32" xlink:href="#linear-gradient"/>
    <linearGradient id="linear-gradient-3" x1="1.107" y1="1.542" x2="-0.327" y2="-0.602" gradientUnits="objectBoundingBox">
      <stop offset="0" stop-color="#07485e" stop-opacity="0"/>
      <stop offset="0.333" stop-color="#063f52" stop-opacity="0.333"/>
      <stop offset="0.936" stop-color="#032632" stop-opacity="0.937"/>
      <stop offset="1" stop-color="#03232e"/>
    </linearGradient>
    <linearGradient id="linear-gradient-4" x1="0.14" y1="0.14" x2="0.909" y2="0.909" gradientUnits="objectBoundingBox">
      <stop offset="0" stop-color="#76e2f8"/>
      <stop offset="1" stop-color="#48b2e3"/>
    </linearGradient>
    <linearGradient id="linear-gradient-5" x1="1.391" y1="0.14" x2="2.16" y2="0.909" xlink:href="#linear-gradient-4"/>
  </defs>
  <g id="Group_34" data-name="Group 34" transform="translate(27.947 0)">
    <path id="Path_6" data-name="Path 6" d="M205.592,33.393h-2.107a41.612,41.612,0,0,0-2.314-5.138l1.621-1.621a5.255,5.255,0,0,0,0-7.431L191.645,8.055a5.255,5.255,0,0,0-7.431,0l-2.091,2.091a41.524,41.524,0,0,0-4.669-1.863V5.255A5.255,5.255,0,0,0,172.2,0H156.433a5.255,5.255,0,0,0-5.255,5.255V8.283a41.634,41.634,0,0,0-4.669,1.863l-2.091-2.091a5.255,5.255,0,0,0-7.431,0L125.84,19.2a5.255,5.255,0,0,0,0,7.431l1.621,1.621a41.609,41.609,0,0,0-2.314,5.138H123.04a5.255,5.255,0,0,0-5.255,5.255V54.414a5.255,5.255,0,0,0,5.255,5.255H124.2a41.52,41.52,0,0,0,2.306,6.089l-.67.67a5.255,5.255,0,0,0,0,7.431l11.148,11.148a5.255,5.255,0,0,0,7.431,0l.2-.2a41.543,41.543,0,0,0,6.559,2.814v.187a5.255,5.255,0,0,0,5.255,5.255H172.2a5.255,5.255,0,0,0,5.255-5.255V87.62a41.606,41.606,0,0,0,6.559-2.814l.2.2a5.255,5.255,0,0,0,7.431,0L202.793,73.86a5.255,5.255,0,0,0,0-7.431l-.67-.67a41.548,41.548,0,0,0,2.306-6.089h1.164a5.255,5.255,0,0,0,5.255-5.255V38.648A5.256,5.256,0,0,0,205.592,33.393ZM164.316,64.749a16.8,16.8,0,1,1,16.8-16.8A16.8,16.8,0,0,1,164.316,64.749Z" transform="translate(-117.785 0)" fill="url(#linear-gradient)"/>
    <path id="Path_7" data-name="Path 7" d="M215.58,134.364A30.584,30.584,0,1,0,185,103.78,30.582,30.582,0,0,0,215.58,134.364Zm0-47.381a16.8,16.8,0,1,1-16.8,16.8A16.8,16.8,0,0,1,215.58,86.983Z" transform="translate(-169.049 -55.829)" fill="url(#linear-gradient-2)"/>
  </g>
  <path id="Path_8" data-name="Path 8" d="M156.634,270.085H172.4a5.229,5.229,0,0,0,2.448-.605l-32.106-31.868a3.469,3.469,0,0,0-5.065,0l-.674.674-5.045-5.03c-.676-.983-1.808-1.154-3.091-1.154,0,0-10.849-.063-10.818.138a5.255,5.255,0,0,0,5.192,4.452H124.4a41.51,41.51,0,0,0,2.306,6.089l-.67.67a5.255,5.255,0,0,0,0,7.431l11.148,11.148a5.255,5.255,0,0,0,7.431,0l.2-.2a41.545,41.545,0,0,0,6.559,2.814v.187a5.255,5.255,0,0,0,5.254,5.255Z" transform="translate(-90.038 -177.022)" fill="url(#linear-gradient-3)"/>
  <g id="Group_35" data-name="Group 35" transform="translate(0 54.604)">
    <path id="Path_9" data-name="Path 9" d="M62.656,253.958h-1.5a29.674,29.674,0,0,0-1.651-3.667l1.157-1.157a3.749,3.749,0,0,0,0-5.3L52.7,235.877a3.749,3.749,0,0,0-5.3,0l-1.492,1.492a29.716,29.716,0,0,0-3.332-1.329v-2.161a3.75,3.75,0,0,0-3.75-3.75H27.578a3.75,3.75,0,0,0-3.75,3.75v2.161a29.626,29.626,0,0,0-3.332,1.329L19,235.877a3.749,3.749,0,0,0-5.3,0l-7.955,7.955a3.749,3.749,0,0,0,0,5.3L6.9,250.291a29.723,29.723,0,0,0-1.651,3.667h-1.5A3.749,3.749,0,0,0,0,257.707v11.25a3.75,3.75,0,0,0,3.75,3.75h.83a29.625,29.625,0,0,0,1.646,4.345l-.478.478a3.749,3.749,0,0,0,0,5.3l7.955,7.955a3.749,3.749,0,0,0,5.3,0l.143-.143a29.67,29.67,0,0,0,4.68,2.008v.133a3.75,3.75,0,0,0,3.75,3.75h11.25a3.75,3.75,0,0,0,3.75-3.75v-.133a29.677,29.677,0,0,0,4.68-2.008l.143.143a3.749,3.749,0,0,0,5.3,0l7.955-7.955a3.749,3.749,0,0,0,0-5.3l-.478-.478a29.662,29.662,0,0,0,1.646-4.345h.831a3.75,3.75,0,0,0,3.75-3.75v-11.25A3.75,3.75,0,0,0,62.656,253.958ZM33.2,276.332a11.986,11.986,0,1,1,11.986-11.986A11.985,11.985,0,0,1,33.2,276.332Z" transform="translate(0 -230.129)" fill="url(#linear-gradient-4)"/>
    <path id="Path_10" data-name="Path 10" d="M85.212,288.749a21.824,21.824,0,1,0,0,30.863A21.822,21.822,0,0,0,85.212,288.749ZM61.3,312.656a11.986,11.986,0,1,1,16.951,0A11.985,11.985,0,0,1,61.3,312.656Z" transform="translate(-36.577 -269.964)" fill="url(#linear-gradient-5)"/>
  </g>
</svg>
