<svg id="keyboard" xmlns="http://www.w3.org/2000/svg" xmlns:xlink="http://www.w3.org/1999/xlink" width="1054.4" height="738.09" viewBox="0 0 1054.4 738.09">
  <g id="coiledCable" style="color: white">
    <path d="M516.3,191.89a65.58,65.58,0,0,0-.83-8.43,26.21,26.21,0,0,0-8.76-15.35l-5.73-5c-.79-.83-7.13-3.82-8.16-4.32l-36.45-17.7-.05-.32c-1.85-1.23-3.25-3.53-5.48-3.9a6.15,6.15,0,0,0-3.94,1,12.16,12.16,0,0,0-4,3.43,7,7,0,0,0-1.31,5,5.76,5.76,0,0,0,2.31,3.76c2,1.42,4.87,1.54,6.42,3.45a3.21,3.21,0,0,1,.34.48l.25-.16,34.35,12.58.48,2.66-4.72,5.42s-4.61-1.62-9.22,4.6a11.85,11.85,0,0,0-11.28,4s-8.41-1.3-10.37,4.23a9.93,9.93,0,0,0-10.82,4.5s-6.38-1.64-10.64,5.41c0,0-6.39-2.79-12.78,3.44,0,0-7.7-.17-11.63,4.58,0,0-7.86.33-11.14,4.1,0,0-7.86-.17-11.95,4.91,0,0-9.5.17-9.5,5.24a11.23,11.23,0,0,0-11.63,4.26s-7.38-2.13-11.14,4.42c0,0-7.86-1.63-12.12,4.59,0,0-7.87-2.29-11.63,4.1,0,0-8.36-1.31-10.65,3.44,0,0-7.7-2-11.79,4.42,0,0-8.52-3.28-11.8,4.26,0,0-8.68-5.24-12.28,4.26,0,0-6.23-3.28-12.94,3.76,0,0-7.54-2.95-12.12,3.77,0,0-9.17-1.64-11.3,4.26A19.64,19.64,0,0,0,229.23,270s-6-1.25-11.65,4.16c0,0-7.29-.83-11.45,4.37a15.08,15.08,0,0,0-11.73,3.75s-9.29-.42-11.16,3.95c0,0-9.78-1.45-12.9,3.75,0,0-12.28.41-13.74,4,0,0-10.61-.21-12.07,4.79,0,0-9.57-.63-10.4,5,0,0-13.47.34-14.39,12.83-1.11,15,3.77,32.46,20.37,40.23a13.05,13.05,0,0,0,12.26-.5c3.22-1.94,5.1-4.62,4.86-5.11-.42-.83,15.4,14.15,15.4,18.52a19.16,19.16,0,0,0,1.3,7.25l6.09.74,20.82-10.78-6.47-5a6.89,6.89,0,0,0-2.81-1.3l-1.94-.41a2.77,2.77,0,0,1-1.56-.91l-11.65-13.35a2.17,2.17,0,0,1,.38-3.18l3.72-2.66a1.71,1.71,0,0,1,1.69-.16l1.53.7a3.34,3.34,0,0,0,3.64-.57l3.81-3.49a2.32,2.32,0,0,1,2.31-.49l1.34.45a5.37,5.37,0,0,0,5.21-1l2.31-2c.79-.69,1.16,0,2.16.3l1.94.28c1.78.57,3.05-.73,4.56-1.84l3.26-2.37a3,3,0,0,1,2.56-.46l1.75.51a10.27,10.27,0,0,0,6.59-2.41l2.19-2.55a2.67,2.67,0,0,1,2-.92h1.08c2.7,0,4.36-.22,6.56-1.79l4.22-2.14,3.33.83c1.87,0,2.47-1.21,3.95-2.35l2.31-1.77a2.38,2.38,0,0,1,2.08-.41l1.75.46a7.24,7.24,0,0,0,4.53-1.39l3.83-3.25h2.43a9.47,9.47,0,0,0,5.06-1.47l4.69-3h3.05a9.54,9.54,0,0,0,5.06-1.45l4.43-2.79h3.4a8.63,8.63,0,0,0,5.44-1.93l3.52-2.87h3.76a6.77,6.77,0,0,0,4.89-2.07l3.9-4h4.17a6,6,0,0,0,3.48-1.1l4.71-3.32,1.47.35a7.1,7.1,0,0,0,5.77-1.13l3.27-2.36h2.17a10.3,10.3,0,0,0,5.24-1.44l4.4-2.62.79.26A6.81,6.81,0,0,0,354.7,280l5.56-4.72.76.35a5.26,5.26,0,0,0,5.43-.68l4.69-3.73h2.48a7.26,7.26,0,0,0,4.2-1.34l4.57-3.27h3.38a7.6,7.6,0,0,0,4-1.13l4.44-2.74,1.14.24a7.14,7.14,0,0,0,5.91-1.41l3.65-2.89,1.33.26a6.89,6.89,0,0,0,5.83-1.51l3.72-3.18h1a11.54,11.54,0,0,0,6-1.67L427,250h2a7.85,7.85,0,0,0,4.45-1.38l5-3.42h1.85a9.56,9.56,0,0,0,6.41-2.47l3-2.69h2.54a7.66,7.66,0,0,0,4.15-1.23l3.82-2.46h4.06a4.37,4.37,0,0,0,2.9-1.11l2.17-1.92a5.53,5.53,0,0,1,3.68-1.4h2.21a5.79,5.79,0,0,0,3.24-1l1.69-1.15a5.76,5.76,0,0,1,3.21-1h2.25a5.35,5.35,0,0,0,3.37-1.19l1.86-1.5a5.36,5.36,0,0,1,3.35-1.18h2.33a4.91,4.91,0,0,0,3.27-1.24l3.74-3.31a4.67,4.67,0,0,1,3.08-1.17,4.8,4.8,0,0,0,3.92-2l3.59-5a13.79,13.79,0,0,0,2.55-8.5Z" transform="translate(0 -9.38)" fill="currentColor" fill-rule="evenodd"/>
    <path d="M314.34,75l40.48,22.24A23,23,0,0,1,361,87.48l-.15.07c-8.67-1.63-62.73-33.85-62.73-33.85s-2.32-1.53-4.55-3.26A29.07,29.07,0,0,1,285.88,48c-8.82-3.71-17.76-7.11-26.81-10.1-2-.67-4-1.31-6.08-2l-2.23-.72-1.91-.61.35.44S141.61,19.21,85.52,67.92c-75.83,65.24-30.34,111.13,15,125.46,55.16,17.42,133.1,3.25,183.72-23.94,44.12-23.7,61.08-64.8,33.84-85.95l-4.38-7.87A.45.45,0,0,1,314.34,75ZM61.58,159.84C49.11,145.19,47.73,127,57.52,110.37c14.84-25.16,39.48-47,69.84-56.31,27.05-8.34,54.61-15.57,82.8-14a194.84,194.84,0,0,1,50.74,9.46c9.84,3.3,22.6,7.55,30,15.3,0,0,11.89,9.4,12.81,13.33S273,53.87,172.54,60.73C79,68.55,19.22,126.44,84,177.39,76.38,171.38,68.14,167.54,61.58,159.84Zm259.84-46.29c2.45-5.72,4.25-2.45,4.25-2.45.49,22.23-35.32,45.94-35.32,45.94-4.74,1.47-.81-2.13-.81-2.13C316.51,138.24,319,119.27,321.42,113.55Zm-4.5-10.88c1.35,15.68-10.82,30.47-21.31,40.67A106.48,106.48,0,0,1,250,170c-20,5.57-40.52,11.87-61,15.34-28.33,4.81-57.24,2.86-83.77-8.73-11.67-5.1-23.83-10.69-31.73-20a35.32,35.32,0,0,1-7.7-15.19c-4.54-19.65,7.07-36,23.1-46.34,42.41-27.27,95.21-38.89,186-22.35C291.19,75.77,315.21,82.74,316.92,102.67Z" transform="translate(0 -9.38)" fill="currentColor" fill-rule="evenodd"/>
    <path d="M293.53,50.44A29.07,29.07,0,0,1,285.88,48c-8.82-3.71-17.76-7.11-26.81-10.1-2-.67-4-1.31-6.08-2l-2.23-.72-1.91-.61L235.91,18.28l8.68-8.9L259,21.6h2a4.36,4.36,0,0,1,2.88,1.08c5.21,4.53,25,21.88,25.51,23.64C289.67,47.27,291.57,48.93,293.53,50.44Z" transform="translate(0 -9.38)" fill="grey" fill-rule="evenodd"/>
    <path d="M442.93,141.37a7,7,0,0,0-1.31,5,5.76,5.76,0,0,0,2.31,3.76c2,1.42,4.87,1.54,6.42,3.45a3.21,3.21,0,0,1,.34.48c-7.64,5-14-1.61-14-1.61l-4.59-1.21-9.73-6.45a3.45,3.45,0,0,0-2.33-.58,25.59,25.59,0,0,1-21.79-8.09s-2.55-1.32-10.74-4.9-8.77-5.56-10.09-9.23-1.21-.77-2.39-3.16c-9.34-3.11-12.82-9.79-12.82-9.79-7-1.49-7.08-11.39-7.08-11.61l-.28-.16A23,23,0,0,1,361,87.48c8.34-3.84,9.45.72,11.47.16s5.9,1.48,7.93,2,2,2,9.41,5.17c13.84,1.48,26.94,8.67,34.68,14.76s5.72,5.53,7.75,8.3,1.29,2,5,3.5,11.07,8.31,13.1,10.34a10.77,10.77,0,0,0,3.18,2.11,3.79,3.79,0,0,1,2.17,2.85l.69,4.12c-1.85-1.23-3.25-3.53-5.48-3.9a6.15,6.15,0,0,0-3.94,1A12.16,12.16,0,0,0,442.93,141.37Z" transform="translate(0 -9.38)" fill="white" fill-rule="evenodd"/>
    <image class="shadow" id="coiled-cable-shadow" width="474" height="368" transform="translate(44)" xlink:href="./images/mainSvg/KeyboardMod1.png"/>
  </g>
  <g id="straightCable">
    <image class="shadow" id="straight-cable-2" data-name="straight-cable" width="214" height="219" transform="translate(0 165)" xlink:href="./images/mainSvg/KeyboardMod2.png"/>
  </g>
  <g id="wristRest" style="color: burlywood">
    <path d="M289.27,631.37v-19a3.9,3.9,0,0,1,2.61-3.68l14.93-5.24,10.48-3.68L333.94,594l22.15-7.77,27-9.47L414.2,565.8l34.63-12.15,37.44-13.14,39.6-13.9L567,512.2l41.89-14.7,42-14.76,41.52-14.56L732.74,454l38.47-13.5,35.93-12.61,32.73-11.49,28.87-10.12,24.32-8.54,19.12-6.71c8.71-3.06,17.28-6,25.78-9.59a10.66,10.66,0,0,1,3.59-1.05,8.28,8.28,0,0,1,5,1.77c21,14.7,42.13,29.92,61.76,46.4,13.37,11.22,24.75,23.48,38.08,34.74,4.48,3.79,5,11,5.24,16.47.24,5.67.82,13-2.58,17.93a6,6,0,0,1-1.13,1.34,30.62,30.62,0,0,1-4.1,1.79c-10.74,4-19.14,8.51-29.86,12.6-12.89,4.92-25.78,8.58-38.66,13.5l-49.57,18.9-57.85,22.06-63.51,24.22-66.54,25.38L670.9,643l-64.72,24.68-59.86,22.83-52.39,20-42.28,16.12-29.56,11.28c-9.65,3.68-20.07,9-30.54,7.09-8.05-1.48-14.25-6.6-19.47-12.66l-79.75-92.75A12.65,12.65,0,0,1,289.27,631.37Z" transform="translate(0 -9.38)" fill="currentColor" fill-rule="evenodd"/>
    <image class="shadow" id="wristrest-shadow" width="768" height="369" transform="translate(286.4 369.09)" xlink:href="./images/mainSvg/KeyboardMod3.png"/>
  </g>
  <g id="plasticCase" style="color: #39B3DD">
    <path d="M135.84,449.09a13.33,13.33,0,0,1-3-8.92l-.44-32.75c.6-7.5,1.56-19.46,7.69-21.13L770.61,184.54a36.87,36.87,0,0,1,9.28-1.44h2a18.12,18.12,0,0,1,12.52,5l138.83,130.5c3.12,3,4.59,3.76,4.22,8.05L932.54,362a7.59,7.59,0,0,1-4.94,6.12L302.76,591.19a19.67,19.67,0,0,0-2.4,1.06l-31.7,11.13a20.68,20.68,0,0,1-16.16-7.77L137.8,451.5C137.06,450.56,136.41,449.79,135.84,449.09Z" transform="translate(0 -9.38)" fill="currentColor" fill-rule="evenodd"/>
    <image class="shadow" id="bluecase-shadow" width="808" height="421" transform="translate(131 173)" xlink:href="./images/mainSvg/KeyboardMod4.png"/>
  </g>
  <g id="metalCase" style="color: cornflowerblue;">
    <polygon points="133.84 452.71 132 380.17 783.23 174 936.76 323.07 936.76 362.11 264.94 592.56 133.84 452.71" fill="currentColor" fill-rule="evenodd"/>
    <image class="shadow" id="metalCase-shadow" width="806" height="420" transform="translate(132 174)" xlink:href="./images/mainSvg/KeyboardMod5.png"/>
  </g>
  <g id="keycaps" class="keycaps">
    <g id="keycapsRight" style="isolation: isolate; color: white">
      <path d="M752.85,201.69c1.89,2.21,3.91,4.19,5.61,6.56a40.38,40.38,0,0,1,5.92,11.55c.06.19.68,2.34.91,3.62.08.46,3.94-1.08,4.38-1.24l35.21-11.37-5.14-12.71-17.5-15.72-25.9,9.72L750.42,199c.53.53,1,1.09,1.51,1.66Z" transform="translate(0 -9.38)" fill="currentColor"/>
      <path d="M914.21,309.29,911.32,306l-15.17-14a5.41,5.41,0,0,0-4.8-1.3l-4.58,1a.6.6,0,0,1-.72-.59l.1-4.43a9.83,9.83,0,0,0-2.89-7.19l-.78-.79-14.92-14.1a5.83,5.83,0,0,0-5.33-1.45l-4.32,1a.58.58,0,0,1-.71-.67l.45-2.39a8.27,8.27,0,0,0-2.26-7.36l-13.73-13.84a9.32,9.32,0,0,0-9.49-2.31l-4.45.3a5.74,5.74,0,0,1-1,.46l-22.08,8.15-20.07,7.4a12.69,12.69,0,0,0-2.72,1.39L772,261.89a.77.77,0,0,0-.12,1.17l9.8,10a13.31,13.31,0,0,1,2.08,2.8l5.79,10.53a.77.77,0,0,1-.24,1l-10.92,7.35a.77.77,0,0,0-.11,1.18l10.32,10.46a16.56,16.56,0,0,1,2.72,3.67L798.86,324a.34.34,0,0,1-.11.44L795,326.91a.66.66,0,0,1-.74,0L791,324.85a3.33,3.33,0,0,0-2.88-.33l-43.24,15.19a19,19,0,0,0-3.7,1.76l-9.53,5.84a.76.76,0,0,0-.16,1.17l10.8,11.85a6.53,6.53,0,0,1,1.06,1.58l7.44,15.66a.77.77,0,0,1-.44,1.06l163.79-53.3A2.76,2.76,0,0,0,916,322.7v-8.48A7.56,7.56,0,0,0,914.21,309.29Z" transform="translate(0 -9.38)" fill="currentColor"/>
    </g>
    <g id="keycapsMid" style="isolation: isolate; color: #ffd166">
      <path d="M830.21,231.82a72.2,72.2,0,0,0-10.35-13.32,82.81,82.81,0,0,0-6.32-5.82c-1.63-1.36-4-3.4-6.41-2.6l-2.25.73-35.21,11.37c-.44.16-4.3,1.7-4.38,1.24-.23-1.28-.85-3.43-.91-3.62a40.38,40.38,0,0,0-5.92-11.55c-1.7-2.37-3.72-4.35-5.61-6.56l-.92-1.07c-.48-.57-1-1.13-1.51-1.66a10.54,10.54,0,0,0-3.32-2.4c-3.41-1.48-7.51.1-10.93,1a52.63,52.63,0,0,0-9.92,3.77,54.39,54.39,0,0,0-7.73,4.79c-.7.52-6.46,5.47-8.09,7a.74.74,0,0,1-.95.06,18,18,0,0,0-4.69-2.53c-2.84-1-6.32-.18-9.3.69a51.9,51.9,0,0,0-7.7,3,91.34,91.34,0,0,0-17.19,12.09.83.83,0,0,1-1,0,15.61,15.61,0,0,0-7.34-2.8,16,16,0,0,0-6.44.6c-2.62.79-5.06,2.36-7.56,3.5-2.23,1-4.47,2-6.65,3.16a89.91,89.91,0,0,0-13.43,8.35.74.74,0,0,1-.92,0c-1.69-1.44-8.15-6.05-17.24-1.58-9.31,4.57-20,13.84-22.53,16.09a.75.75,0,0,1-1-.07,14.68,14.68,0,0,0-4.19-3.37c-2.58-1.34-5.64-.94-8.36-.32a74,74,0,0,0-8,2.22,50.83,50.83,0,0,0-15,8.47,66.46,66.46,0,0,0-6.2,5.66.74.74,0,0,1-1,0c-1.43-1.37-5.66-4.92-9.77-3.45-5,1.78-18.32,4.95-29.92,18.63a.74.74,0,0,1-1.12,0c-1.45-1.65-5.52-5.78-9-4.76-4.33,1.26-20.2,5.59-25.07,10.28-3.68,3.55-6.74,6.26-8,7.38a.76.76,0,0,1-1.11-.11,10.93,10.93,0,0,0-11.26-4.2c-17.16,3.81-20.11,7.77-30.2,18.92a.79.79,0,0,1-1.23-.06c-1.34-1.88-5-6.19-9.67-4.88-5.94,1.67-19,5.47-24.95,10.46a35.12,35.12,0,0,0-7.32,8.1.74.74,0,0,1-1.19.11c-1.82-2.06-7.21-7.14-14.3-4.65-8.51,3-23.72,7.55-28.77,18.2a.76.76,0,0,1-1.2.25c-1.95-1.8-7.88-5.67-19.92-1.34-14.72,5.29-19.42,8.8-24.23,15.05a.77.77,0,0,1-1.09.14l-4.5-3.62c-1-.82-3.74-1.75-5-1.34l-22.52,8.13-2.8,1.77-8.89,8.86a.78.78,0,0,1-.95.08l-5.83-4.68a3.94,3.94,0,0,0-2-.85,42.58,42.58,0,0,0-5.25,1.46l-19,7.29a7.74,7.74,0,0,0-3,2.1L194.4,381.26c6.48,6.82,13.21,16.64,15,19.36a1.14,1.14,0,0,0,1.3.44c2.92-1,13-4.39,20.53-6.13a3.1,3.1,0,0,1,2.34.38c5.78,3.65,19.37,22.24,22.59,26.91.41.6.55,2.42,1.23,2.15a239.05,239.05,0,0,1,31.23-10.92,7.35,7.35,0,0,1,4.59,1.06c11.38,9.28,22,29.19,22,29.19,3.69-2.17,15.92-5.6,23.5-7.21,6.44.72,27,32.2,27,32.2a80,80,0,0,1,15.79-8c6-2,15.58-5.91,17.32-5.8s5.17,4.2,5.17,4.2c7.14-8.44,14.13-11.17,14.13-11.17,5.88-2.55,37.71-13.22,47.11-15.36a3.16,3.16,0,0,1,2.6.52c12.11,8.92,21.74,26.74,24.31,31.78a1.32,1.32,0,0,1-.67,1.81h.06l258.73-88a.77.77,0,0,0,.44-1.06l-7.44-15.66a6.53,6.53,0,0,0-1.06-1.58l-10.8-11.85a.76.76,0,0,1,.16-1.17l9.53-5.84a19,19,0,0,1,3.7-1.76l43.24-15.19a3.33,3.33,0,0,1,2.88.33l3.23,2.07a.66.66,0,0,0,.74,0l3.79-2.52a.34.34,0,0,0,.11-.44l-7.57-13.88a16.56,16.56,0,0,0-2.72-3.67l-10.32-10.46a.77.77,0,0,1,.11-1.18l10.92-7.35a.77.77,0,0,0,.24-1l-5.79-10.53a13.31,13.31,0,0,0-2.08-2.8l-9.8-10a.77.77,0,0,1,.12-1.17l9.91-6.68a12.69,12.69,0,0,1,2.72-1.39l20.07-7.4,22.08-8.15a5.74,5.74,0,0,0,1-.46,6.22,6.22,0,0,0,2.74-3.23A3.16,3.16,0,0,0,830.21,231.82Z" transform="translate(0 -9.38)" fill="currentColor"/>
    </g>
    <g id="keycapsLeft" style="isolation: isolate; color: white">
      <path d="M492.22,464.86c-2.57-5-12.2-22.86-24.31-31.78a3.16,3.16,0,0,0-2.6-.52c-9.4,2.14-41.23,12.81-47.11,15.36,0,0-7,2.73-14.13,11.17,0,0-3.43-4.09-5.17-4.2s-11.32,3.8-17.32,5.8a80,80,0,0,0-15.79,8s-20.57-31.48-27-32.2c-7.58,1.61-19.81,5-23.5,7.21,0,0-10.66-19.91-22-29.19a7.35,7.35,0,0,0-4.59-1.06,239.05,239.05,0,0,0-31.23,10.92c-.68.27-.82-1.55-1.23-2.15C253,417.55,239.38,399,233.6,395.31a3.1,3.1,0,0,0-2.34-.38c-7.5,1.74-17.61,5.13-20.53,6.13a1.14,1.14,0,0,1-1.3-.44c-1.82-2.72-8.55-12.54-15-19.36a31.92,31.92,0,0,0-7.09-6c-1.31-.71-2.82-1.93-4.28-1.63a93.43,93.43,0,0,0-23,8.48c-3.91,2.09-8.54,3.28-9.84,11.64a2.18,2.18,0,0,0,.44,1.67l115,147.78a1.49,1.49,0,0,0,1.67.5l224.17-77,.08,0A1.32,1.32,0,0,0,492.22,464.86Z" transform="translate(0 -9.38)" fill="currentColor"/>
    </g>
    <image class="shadow" id="keycaps-shadow" width="772" height="363" transform="translate(147 173)" xlink:href="./images/mainSvg/KeyboardMod6.png"/>
  </g>
</svg>
